<?xml version="1.0" ?><svg style="enable-background:new 0 0 48 48;" version="1.1" viewBox="0 0 48 48" xml:space="preserve" xmlns="http://www.w3.org/2000/svg" xmlns:xlink="http://www.w3.org/1999/xlink"><g id="Icons"><g><g><path d="M30.67172,39.05259H17.32828c-1.08098,0-1.95729-0.87631-1.95729-1.95729v-0.92041h17.25802     v0.92041C32.62901,38.17627,31.7527,39.05259,30.67172,39.05259z" style="fill:#444444;"/><g><rect height="23.42005" style="fill:#F4F4F4;" width="17.25802" x="15.37099" y="12.75483"/><path d="M30.33773,8.94742H17.86268c-1.37612,0-2.49169,1.11557-2.49169,2.49169v1.31573h17.45842      V11.4391C32.82941,10.06298,31.71385,8.94742,30.33773,8.94742z" style="fill:#444444;"/><path d="      M30.51314,39.05259H17.48686c-1.16856,0-2.11587-0.94731-2.11587-2.11587V11.06329c0-1.16856,0.94731-2.11587,2.11587-2.11587      h13.02628c1.16856,0,2.11587,0.94731,2.11587,2.11587v25.87343C32.62901,38.10528,31.6817,39.05259,30.51314,39.05259z" style="fill:none;stroke:#303030;stroke-width:0.7;stroke-linecap:round;stroke-linejoin:round;stroke-miterlimit:10;"/><rect height="23.42005" style="fill:none;stroke:#303030;stroke-width:0.7;stroke-linecap:round;stroke-linejoin:round;stroke-miterlimit:10;" width="17.25802" x="15.37099" y="12.75483"/><circle cx="24" cy="37.56833" r="0.64537" style="fill:#FFFFFF;"/><ellipse cx="26.88283" cy="10.82123" rx="0.36534" ry="0.32871" style="fill:#FFFFFF;"/><line style="fill:none;stroke:#FFFFFF;stroke-width:0.7;stroke-linecap:round;stroke-linejoin:round;stroke-miterlimit:10;" x1="20.75183" x2="24.47485" y1="10.82123" y2="10.82123"/><line style="fill:none;stroke:#303030;stroke-width:0.7;stroke-linecap:round;stroke-linejoin:round;stroke-miterlimit:10;" x1="20.48108" x2="17.61101" y1="14.20828" y2="16.79057"/><line style="fill:none;stroke:#303030;stroke-width:0.7;stroke-linecap:round;stroke-linejoin:round;stroke-miterlimit:10;" x1="21.01124" x2="19.22268" y1="15.49943" y2="17.10864"/></g></g><g><linearGradient gradientUnits="userSpaceOnUse" id="SVGID_1_" x1="24" x2="24" y1="30.70079" y2="17.96427"><stop offset="0.09694" style="stop-color:#FFD879"/><stop offset="0.15387" style="stop-color:#FCCB76"/><stop offset="0.25828" style="stop-color:#F5AA6C"/><stop offset="0.39756" style="stop-color:#E9755E"/><stop offset="0.44898" style="stop-color:#E45F58"/><stop offset="0.67857" style="stop-color:#D22A9C"/><stop offset="1" style="stop-color:#6968DF"/></linearGradient><path d="M26.58051,29.92405h-5.16126c-1.58707,0-2.87844-1.29137-2.87844-2.87868v-5.16103     c0-1.58731,1.29137-2.87868,2.87844-2.87868h5.16126c1.58731,0,2.87868,1.29137,2.87868,2.87868v5.16103     C29.45919,28.63268,28.16782,29.92405,26.58051,29.92405z" style="fill:url(#SVGID_1_);"/></g><circle cx="24" cy="24.46486" r="2.05996" style="fill:none;stroke:#FFFFFF;stroke-width:0.7;stroke-linecap:round;stroke-linejoin:round;stroke-miterlimit:10;"/><circle cx="26.72131" cy="21.83239" r="0.29604" style="fill:#FFFFFF;"/><g><path d="     M26.04852,28.7986h-4.09723c-1.25989,0-2.28503-1.02514-2.28503-2.28522v-4.09705c0-1.26007,1.02514-2.28522,2.28503-2.28522     h4.09723c1.26007,0,2.28522,1.02514,2.28522,2.28522v4.09705C28.33374,27.77346,27.3086,28.7986,26.04852,28.7986z" style="fill:none;stroke:#FFFFFF;stroke-width:0.7;stroke-linecap:round;stroke-linejoin:round;stroke-miterlimit:10;"/></g></g></g></svg>